<?xml version="1.0" encoding="UTF-8"?>
<!DOCTYPE svg PUBLIC "-//W3C//DTD SVG 1.1//EN" "http://www.w3.org/Graphics/SVG/1.1/DTD/svg11.dtd">
<!-- Creator: CorelDRAW X7 -->
<svg xmlns="http://www.w3.org/2000/svg" xml:space="preserve" width="8.26772in" height="11.6929in" version="1.1" style="shape-rendering:geometricPrecision; text-rendering:geometricPrecision; image-rendering:optimizeQuality; fill-rule:evenodd; clip-rule:evenodd"
viewBox="0 0 8268 11693"
 xmlns:xlink="http://www.w3.org/1999/xlink">
 <defs>
  <style type="text/css">
   <![CDATA[
    .fil3 {fill:none}
    .fil0 {fill:#019444}
    .fil2 {fill:#3C9A44}
    .fil1 {fill:#E6E6E6}
   ]]>
  </style>
   <clipPath id="id0">
    <path d="M0 11693l0 -11693 8268 0 0 11693 -8268 0z"/>
   </clipPath>
    <clipPath id="id1">
     <path d="M8179 11693l89 -172 0 -11521 -8268 0 0 11693 8179 0z"/>
    </clipPath>
    <clipPath id="id2">
     <path d="M0 11693l0 -11693 8268 0 0 11693 -8268 0z"/>
    </clipPath>
 </defs>
 <g id="Layer_x0020_1">
  <metadata id="CorelCorpID_0Corel-Layer"/>
  <g>
  </g>
  <g style="clip-path:url(#id0)">
   <g>
    <path class="fil0" d="M6850 14257l9403 -18150c423,-816 231,-835 -546,-1237l-11614 -6016c-1012,-524 -877,-233 -1956,1849 -596,1151 -8815,16890 -8858,17146 -83,482 1001,877 1656,1216 859,446 10977,5740 11241,5792 369,73 478,-221 674,-600z"/>
   </g>
   <g style="clip-path:url(#id1)">
    <g id="_2822455583040">
     <g>
      <path id="1" class="fil1" d="M-5267 7816l4582 2379c-72,211 -203,349 -192,523 159,174 1557,894 1751,910 75,-32 31,5 107,-78l219 -361c1016,434 3490,1785 4536,2327 79,40 211,117 285,149 427,185 423,-160 1031,-1316l7755 -14968c960,-1854 1095,-1230 -1229,-2458l-3103 -1617c252,-629 482,-414 -666,-1008 -223,-116 -489,-272 -710,-373 -368,-170 -298,35 -511,384 -1062,-472 -4964,-2641 -5141,-2581 -153,51 -1819,3426 -2130,4026l-6387 12315c-882,1721 -881,1392 -197,1747z"/>
      <g>
       <path class="fil2" d="M3973 -173l-4262 -2207c69,-284 263,-586 395,-853 234,-471 160,-493 609,-246 1450,797 3301,1714 4797,2489l6354 3313c-4,277 -437,960 -606,1256 -740,-362 -1481,-764 -2215,-1144 -531,-275 -1774,-827 -2110,-1215 -26,393 139,560 -136,1322l3968 2071 4456 -8556 -1800 -945 -1496 2885c343,71 613,248 932,414l779 471c10,307 -390,919 -584,1221l-11567 -5987 659 -1226c349,111 1554,733 1799,976l1480 -2873 -1872 -993 -4438 8567 3985 2074c465,-626 496,-506 873,-814z"/>
       <path class="fil2" d="M11803 -2291l1407 -2702 -1726 -900c-149,264 -371,875 -569,1021 -172,80 -1907,-897 -2054,-973 -589,-305 -1593,-754 -2096,-1114l528 -1093 -1634 -855 -1415 2685c301,238 3150,1664 3734,1966 1174,608 2643,1474 3825,1965z"/>
       <path class="fil0" d="M3973 -173c382,-61 908,-410 1776,-6 1003,467 1051,1237 1186,1399 336,388 1579,940 2110,1215 734,380 1475,782 2215,1144 169,-296 602,-979 606,-1256l-6354 -3313c-1496,-775 -3347,-1692 -4797,-2489 -449,-247 -375,-225 -609,246 -132,267 -326,569 -395,853l4262 2207z"/>
       <path class="fil0" d="M11927 -2003c-401,-24 -1828,-891 -2326,-1135 -276,-136 -256,-83 -503,1 -203,69 -250,92 -478,104 -787,43 -1503,-303 -1944,-945 -351,-511 -214,-720 -419,-882 -365,-289 -2163,-1009 -2312,-1274 -245,-243 -1450,-865 -1799,-976l-659 1226 11567 5987c194,-302 594,-914 584,-1221l-779 -471c-319,-166 -589,-343 -932,-414z"/>
       <path class="fil2" d="M3959 1086l1975 1023 607 315c482,-772 20,-1921 -807,-2347 -832,-430 -2008,-144 -2378,691l603 318z"/>
       <polygon class="fil0" points="10779,-5118 11252,-5985 7512,-7939 7065,-7054 "/>
       <path class="fil0" d="M9067 -3394l-2413 -1265c17,421 451,910 932,1160 523,272 1087,304 1481,105z"/>
       <polygon class="fil0" points="10241,-6810 10396,-7114 8983,-7854 8819,-7569 "/>
       <path class="fil2" d="M9089 -3403c-968,424 -2226,-221 -2452,-1250l2452 1250z"/>
      </g>
      <g>
       <path class="fil2" d="M2808 2078l-4262 -2209c-193,220 -327,553 -469,815 -250,462 -310,415 150,639 1488,725 3304,1708 4800,2483l6372 3279c224,-163 532,-911 677,-1220 -723,-395 -1479,-769 -2212,-1149 -532,-275 -1700,-972 -2211,-1023 307,-248 538,-209 1002,-873l3981 2047 -4418 8575 -1811 -925 1494 -2886c256,239 556,357 876,522l834 364c256,-169 525,-848 660,-1182l-11563 -5993 -621 1244c291,222 1495,847 1835,907l-1493 2867 -1891 -957 4438 -8567 3992 2059c-243,741 -127,697 -160,1183z"/>
       <path class="fil2" d="M5594 9695l-1396 2708 -1730 -890c129,-275 500,-808 506,-1055 -35,-186 -1834,-1040 -1980,-1116 -590,-305 -1535,-866 -2119,-1070l-589 1062 -1641 -841 1378 -2705c368,109 3176,1613 3760,1916 1174,608 2728,1309 3811,1991z"/>
       <path class="fil0" d="M2808 2078c169,347 188,978 1019,1454 960,550 1616,144 1826,161 511,51 1679,748 2211,1023 733,380 1489,754 2212,1149 -145,309 -453,1057 -677,1220l-6372 -3279c-1496,-775 -3312,-1758 -4800,-2483 -460,-224 -400,-177 -150,-639 142,-262 276,-595 469,-815l4262 2209z"/>
       <path class="fil0" d="M5901 9631c-251,-315 -1782,-980 -2269,-1246 -270,-147 -215,-161 -289,-411 -61,-206 -70,-258 -191,-451 -419,-667 -1114,-1053 -1894,-1043 -620,8 -712,241 -962,167 -446,-131 -2072,-1184 -2374,-1154 -340,-60 -1544,-685 -1835,-907l621 -1244 11563 5993c-135,334 -404,1013 -660,1182l-834 -364c-320,-165 -620,-283 -876,-522z"/>
       <path class="fil2" d="M3828 1340l1974 1023 608 314c-352,839 -1557,1124 -2383,695 -831,-432 -1276,-1557 -807,-2342l608 310z"/>
       <polygon class="fil0" points="2694,10490 2258,11376 -1495,9448 -1030,8572 "/>
       <path class="fil0" d="M3114 8096l-2424 -1241c353,-229 1003,-156 1485,92 524,270 876,713 939,1149z"/>
       <polygon class="fil0" points="1001,11026 843,11328 -577,10601 -439,10303 "/>
       <path class="fil2" d="M3120 8120c-212,-1036 -1464,-1691 -2435,-1282l2435 1282z"/>
      </g>
     </g>
    </g>
   </g>
   <g style="clip-path:url(#id2)">
    <path class="fil3" d="M6850 14257l9403 -18150c423,-816 231,-835 -546,-1237l-11614 -6016c-1012,-524 -877,-233 -1956,1849 -596,1151 -8815,16890 -8858,17146 -83,482 1001,877 1656,1216 859,446 10977,5740 11241,5792 369,73 478,-221 674,-600z"/>
   </g>
  </g>
  <polygon class="fil3" points="0,11693 0,0 8268,0 8268,11693 "/>
 </g>
</svg>
