<?xml version="1.0" encoding="UTF-8"?>
<!DOCTYPE svg PUBLIC "-//W3C//DTD SVG 1.1//EN" "http://www.w3.org/Graphics/SVG/1.1/DTD/svg11.dtd">
<!-- Creator: CorelDRAW X7 -->
<svg xmlns="http://www.w3.org/2000/svg" xml:space="preserve" width="1.04166in" height="1.04166in" version="1.1" style="shape-rendering:geometricPrecision; text-rendering:geometricPrecision; image-rendering:optimizeQuality; fill-rule:evenodd; clip-rule:evenodd"
viewBox="0 0 1042 1042"
 xmlns:xlink="http://www.w3.org/1999/xlink">
 <defs>
  <style type="text/css">
   <![CDATA[
    .fil0 {fill:#392F26}
   ]]>
  </style>
 </defs>
 <g id="Layer_x0020_1">
  <metadata id="CorelCorpID_0Corel-Layer"/>
  <path class="fil0" d="M577 0l-106 0c-51,23 -114,-3 -268,109 -73,53 -130,135 -164,217 -135,314 95,714 476,716 377,2 621,-374 492,-709 -36,-91 -91,-161 -162,-219 -48,-40 -103,-69 -165,-89 -44,-15 -78,-17 -97,-23l-6 -2zm-357 527l-30 167c-7,39 0,47 37,91l100 101c24,-5 184,-56 194,-65 8,-8 19,-95 21,-107 11,-66 20,-54 -16,-94l-63 -64c-14,-13 -54,-53 -62,-67 -46,1 -129,29 -181,38zm321 300l109 69c41,27 28,25 119,-21l84 -51c11,-7 12,-14 14,-31 4,-44 19,-122 17,-162l-58 -41c-21,-15 -38,-28 -61,-43 -21,7 -136,72 -165,87 -41,22 -31,16 -42,82 -6,36 -14,75 -17,111zm-324 -316c44,-6 100,-22 146,-33 45,-9 37,-17 79,-103 53,-110 58,-66 -17,-169 -12,-17 -28,-41 -40,-52 -46,11 -92,26 -137,38 -38,10 -36,11 -54,36 -25,35 -43,79 -59,120 -16,44 -22,30 43,113 12,15 25,37 39,50zm185 -365c6,11 92,130 103,134 17,6 187,21 215,22l104 -107c-8,-15 -61,-67 -77,-84 -31,-31 -232,-66 -262,-44 -8,6 -10,10 -19,19l-43 38c-11,10 -14,9 -21,22zm494 470c13,-16 39,-35 63,-59 42,-44 47,-18 38,-86 -4,-24 -9,-51 -15,-72 -6,-20 -15,-41 -23,-59 -16,-31 -102,-121 -124,-134 -9,12 -26,28 -39,42 -64,68 -67,50 -57,103l26 142c7,41 1,34 31,55 17,13 29,22 48,34 17,12 34,26 52,34zm-522 387c-6,-20 -45,-99 -64,-113l-91 -89c-20,-24 -29,-43 -50,-70l-107 -5c17,69 110,165 161,202 15,11 28,19 45,29 28,16 73,39 106,46zm-352 -553c14,-6 21,-14 32,-23 97,-83 35,-45 104,-172 18,-32 24,-39 47,-64 -1,-13 -7,-42 -14,-51 -79,56 -156,201 -169,310zm595 566c56,-6 134,-43 173,-69 47,-30 51,-34 85,-67 16,-16 35,-33 44,-52 -61,2 -48,5 -90,31 -48,29 -138,69 -157,90 -11,13 -52,56 -55,67zm-120 -972c146,4 122,15 231,36l-5 -21c-64,-31 -147,-44 -229,-42l3 27z"/>
 </g>
</svg>
